<svg xmlns="http://www.w3.org/2000/svg" width="22" height="32" fill="none"><path fill="#595653" d="M20.816 29.634h-.563l-.003-.018-.016-.069q-.015-.068-.032-.134l-.015-.063-.045-.176-.005-.017-.055-.19-.018-.061-.04-.13-.023-.07-.043-.124-.022-.065-.057-.154q-.007-.015-.012-.032l-.072-.18-.027-.064-.05-.117-.032-.072-.084-.183q-.029-.064-.061-.128-.012-.023-.025-.049l-.086-.166-.04-.07-.055-.101-.043-.075-.055-.094-.045-.075-.062-.101-.056-.091q-.04-.064-.082-.126l-.052-.078-.056-.083q-.03-.04-.057-.081a1 1 0 0 0-.055-.075c-.019-.024-.04-.055-.06-.082l-.055-.075q-.058-.075-.115-.15l-.054-.069-.07-.085-.052-.063-.073-.086-.051-.06-.077-.086-.045-.05a10 10 0 0 0-.29-.306l-.044-.043-.09-.09-.045-.042-.095-.09-.033-.03a8 8 0 0 0-.343-.299l-.032-.026-.11-.09-.036-.028q-.058-.045-.113-.09l-.02-.014q-.194-.149-.395-.287l-.018-.014-.127-.085-.028-.018q-.066-.044-.131-.085l-.008-.005a9 9 0 0 0-.444-.264l-.006-.004-.143-.078-.021-.011a10 10 0 0 0-.783-.375l-.017-.007-.213-.087h1.412c.23 0 .417-.251.417-.561s-.186-.562-.417-.562h-.42q.04-.094.086-.214c.398-.235 1.098-.736 1.793-1.655l.005-.008q.08-.103.155-.213l.01-.015q.077-.108.151-.224l.014-.021.07-.112s0-.003.004-.005l.072-.119.016-.026.061-.105.012-.02.07-.122.015-.03a6 6 0 0 0 .139-.262l.015-.03.052-.107.02-.038.063-.134.013-.029.05-.112.021-.045a7 7 0 0 0 .121-.29l.02-.05.048-.124.012-.032.055-.15.019-.053.042-.12.015-.045.068-.212.04-.123.016-.054a9 9 0 0 0 .097-.348l.016-.06q.022-.085.043-.174l.012-.05.033-.14.014-.064a13 13 0 0 0 .079-.384l.013-.066.03-.168.006-.035.032-.2q.006-.033.01-.067l.025-.165.007-.05.027-.209.008-.067.026-.228.02-.22q.002-.03.006-.061l.015-.179q.001-.033.005-.066l.015-.23q0-.029.003-.054l.01-.194q0-.036.003-.07l.009-.244V13.2l.004-.221v-.67q-.001-.113-.005-.231v-.042q-.003-.135-.01-.272l-.003-.072-.012-.232q0-.028-.003-.057l-.018-.283-.005-.067-.018-.24q-.002-.034-.006-.069l-.027-.294q-.001-.028-.005-.057l-.027-.255-.008-.077-.036-.307q-.001-.02-.005-.038l-.036-.28-.011-.083-.046-.321C17.598-1.626 6.41.104 6.41.104l.358 2.29L0 9.17l.296 2.617 2.563 1.497q.172-.414.438-.782C4.95 10.695 8.159 9.275 9.078 8.98c.184-.059.289-.088.289-.088-4.394 5.391-3.895 11.568-3.699 13.04-.203.037-.361.27-.361.555 0 .31.187.561.417.561h1.413c-2.35.933-4.215 2.709-5.189 4.94l-.003.01a9 9 0 0 0-.267.7l-.04.126-.02.066-.037.12-.021.075a4 4 0 0 0-.054.2q-.015.055-.028.112-.014.056-.027.114l-.03.13H.86a.85.85 0 0 0-.587.22.8.8 0 0 0-.181.252.74.74 0 0 0 .18.85.82.82 0 0 0 .588.22h19.964a.85.85 0 0 0 .587-.22.8.8 0 0 0 .181-.252.74.74 0 0 0-.18-.85.853.853 0 0 0-.587-.22z"/></svg>